<?xml version="1.0" encoding="UTF-8" standalone="no"?>
<svg
   xmlns:dc="http://purl.org/dc/elements/1.1/"
   xmlns:cc="http://creativecommons.org/ns#"
   xmlns:rdf="http://www.w3.org/1999/02/22-rdf-syntax-ns#"
   xmlns:svg="http://www.w3.org/2000/svg"
   xmlns="http://www.w3.org/2000/svg"
   xmlns:sodipodi="http://sodipodi.sourceforge.net/DTD/sodipodi-0.dtd"
   xmlns:inkscape="http://www.inkscape.org/namespaces/inkscape"
   inkscape:version="1.0 (4035a4fb49, 2020-05-01)"
   sodipodi:docname="MZOURACK_logo.svg"
   xml:space="preserve"
   style="enable-background:new 0 0 340.2 226.8;"
   viewBox="0 0 340.2 226.8"
   y="0px"
   x="0px"
   id="Vrstva_1"
   version="1.1"><metadata
   id="metadata31"><rdf:RDF><cc:Work
       rdf:about=""><dc:format>image/svg+xml</dc:format><dc:type
         rdf:resource="http://purl.org/dc/dcmitype/StillImage" /></cc:Work></rdf:RDF></metadata><defs
   id="defs29" /><sodipodi:namedview
   inkscape:current-layer="Vrstva_1"
   inkscape:window-maximized="1"
   inkscape:window-y="-9"
   inkscape:window-x="-9"
   inkscape:cy="113.4"
   inkscape:cx="144.48858"
   inkscape:zoom="3.2407407"
   showgrid="false"
   id="namedview27"
   inkscape:window-height="1261"
   inkscape:window-width="2400"
   inkscape:pageshadow="2"
   inkscape:pageopacity="0"
   guidetolerance="10"
   gridtolerance="10"
   objecttolerance="10"
   borderopacity="1"
   bordercolor="#eeeeee"
   pagecolor="#505050" />
<style
   id="style2"
   type="text/css">
	.st0{fill:#FFFFFF;}
</style>
<g
   style="fill:#ffffff"
   id="g24">
	<g
   style="fill:#ffffff"
   id="g20">
		<path
   style="fill:#ffffff"
   id="path4"
   d="M50.3,97.2h3.8l8.9,14l8.9-14h3.8v24.9h-4.2v-16.9l-8.5,13.2l-8.5-13.1v16.8h-4.2V97.2z" />
		<path
   style="fill:#ffffff"
   id="path6"
   d="M87.7,119.2l14.1-17.9H89.1v-4h18.4v3.3l-13.8,17.6h14.1v4H87.7V119.2z" />
		<path
   style="fill:#ffffff"
   id="path8"
   d="M130.4,96.8c7.3,0,13.2,5.6,13.2,12.9c0,7.3-5.9,12.9-13.2,12.9c-7.3,0-13.2-5.6-13.2-12.9    C117.3,102.4,123.1,96.8,130.4,96.8z M130.4,118.6c5,0,8.8-3.9,8.8-8.9c0-5-3.8-8.9-8.8-8.9s-8.8,3.9-8.8,8.9    C121.7,114.8,125.5,118.6,130.4,118.6z" />
		<path
   style="fill:#ffffff"
   id="path10"
   d="M155.3,97.2h4.5v14.9c0,4.4,2.3,6.4,5.6,6.4c3.4,0,5.6-1.9,5.6-6.4V97.2h4.5v15.4c0,6.7-4.5,9.9-10.1,9.9    c-5.6,0-10.1-3.3-10.1-9.9V97.2z" />
		<path
   style="fill:#ffffff"
   id="path12"
   d="M188.5,97.2h9.7c4.4,0,8.1,3.4,8.1,7.9c0,3.3-1.9,6-4.5,7.1l6,9.9h-5l-5.3-8.9h-0.1H193v8.9h-4.5V97.2z M197.8,109.3    c2.4,0,4.1-1.7,4.1-4.1c0-2.3-1.6-3.9-3.8-3.9H193v8H197.8z" />
		<path
   style="fill:#ffffff"
   id="path14"
   d="M226.6,97.2h3.8l10.4,24.9h-4.7l-2-5H223l-2,5h-4.7L226.6,97.2z M232.6,113.5l-4.1-10.2l-4.1,10.2H232.6z" />
		<path
   style="fill:#ffffff"
   id="path16"
   d="M262.5,96.8c4,0,7.4,1.7,9.9,4.5l-3,2.6c-1.7-1.9-4.1-3-6.8-3c-5,0-8.8,3.8-8.8,8.9c0,5.1,3.8,8.8,8.8,8.8    c2.8,0,5.2-1.1,6.9-3.1l3,2.6c-2.4,2.8-5.9,4.5-9.9,4.5c-7.3,0-13.2-5.4-13.2-12.9S255.2,96.8,262.5,96.8z" />
		<path
   style="fill:#ffffff"
   id="path18"
   d="M283.8,97.2h4.5v11.9l10.5-11.9h5.3l-9.7,11l10,13.9h-5.2l-7.8-10.8l-3.1,3.5v7.3h-4.5V97.2z" />
	</g>
	<rect
   style="fill:#ffffff"
   id="rect22"
   height="4.1"
   width="18.4"
   y="90.6"
   x="89.1" />
</g>
</svg>
